# xmcd CD database file
#
# Track frame offsets:
#	183
#	11060
#	22200
#	33028
#	44740
#	55525
#	65653
#	77478
#	90148
#	100980
#	111128
#	121718
#	133810
#	142870
#	154240
#	163935
#	174890
#	184505
#	195170
#	207058
#
# Disc length: 2911 seconds
#
# Revision: 0
# Processed by: cddbd v1.4PL0 Copyright (c) Steve Scherf et al.
# Submitted via: CDex 1.40Release
#
DISCID=f90b5d14
DTITLE=Tennessee Ernie Ford - Farmyard Boogie
DYEAR=1900
DGENRE=Country
TTITLE0=Hey Mr Cottonpicker
TTITLE1=Tennessee Local
TTITLE2=Celebratin'
TTITLE3=I'm Hog-Tied Over You
TTITLE4=Ain't Gonna Let It Happen No More
TTITLE5=Rock City Boogie
TTITLE6=I'll Never Be Free
TTITLE7=Stack-O-Lee
TTITLE8=Milk Em'In The Morning, Feed Em', Milk Em' In The Evenin' Blues
TTITLE9=Kiss Me Big
TTITLE10=Tailor Made Woman
TTITLE11=Ain't Nobody's Business But My Own
TTITLE12=Everybody's Got A Girl But Me
TTITLE13=Snowshoe Thompson
TTITLE14=Anticipation Blues
TTITLE15=Feed Em'In The Morning, Change Em', Feed Em' In The Evenin' Blues
TTITLE16=Kissin' Bug Boogie
TTITLE17=False Hearted Girl
TTITLE18=Don't Start Courtin' In Hot-Rod
TTITLE19=My Hobby
EXTD=ID3G: 2
EXTT0=
EXTT1=
EXTT2=
EXTT3=
EXTT4=
EXTT5=
EXTT6=
EXTT7=
EXTT8=
EXTT9=
EXTT10=
EXTT11=
EXTT12=
EXTT13=
EXTT14=
EXTT15=
EXTT16=
EXTT17=
EXTT18=
EXTT19=
PLAYORDER=
